<svg width="86" height="36" viewBox="0 0 86 36" fill="none" xmlns="http://www.w3.org/2000/svg">
<path d="M36.7324 5.1484C36.7324 3.38809 34.6225 2.48633 33.3502 3.7029L18.9034 17.5172C18.5088 17.8945 18.2857 18.4167 18.2857 18.9627L18.2857 30.851C18.2857 32.6113 20.3956 33.5131 21.6679 32.2965L36.1146 18.4822C36.5092 18.1049 36.7324 17.5827 36.7324 17.0367L36.7324 5.1484Z" fill="#E8E8F6"/>
<path d="M55.028 25.4688V23.3807H56.918V25.4688H55.028ZM47.72 25.4688V23.3807H54.254L52.616 24.8027V21.7787C52.616 20.9267 52.526 20.2667 52.346 19.7987C52.178 19.3307 51.89 19.0007 51.482 18.8087C51.086 18.6167 50.54 18.5207 49.844 18.5207H48.386V16.4327H49.844C50.948 16.4327 51.884 16.6127 52.652 16.9727C53.432 17.3327 54.02 17.9087 54.416 18.7007C54.824 19.4807 55.028 20.5067 55.028 21.7787V25.4688H47.72ZM56.918 25.4688V23.3807C57.062 23.3807 57.158 23.4767 57.206 23.6687C57.254 23.8487 57.278 24.1007 57.278 24.4247C57.278 24.7367 57.254 24.9887 57.206 25.1807C57.158 25.3727 57.062 25.4688 56.918 25.4688ZM48.656 14.7767V12.7247H51.068V14.7767H48.656ZM61.2161 25.4688V23.3807H63.1061V25.4688H61.2161ZM56.9141 25.4688V23.3807H60.2081L58.8041 24.5507V16.4327H61.2161V25.4688H56.9141ZM56.9141 25.4688C56.7701 25.4688 56.6741 25.3727 56.6261 25.1807C56.5781 24.9887 56.5541 24.7367 56.5541 24.4247C56.5541 24.1007 56.5781 23.8487 56.6261 23.6687C56.6741 23.4767 56.7701 23.3807 56.9141 23.3807V25.4688ZM63.1061 25.4688V23.3807C63.2501 23.3807 63.3461 23.4767 63.3941 23.6687C63.4421 23.8487 63.4661 24.1007 63.4661 24.4247C63.4661 24.7367 63.4421 24.9887 63.3941 25.1807C63.3461 25.3727 63.2501 25.4688 63.1061 25.4688ZM58.8041 29.3028V27.2508H61.2161V29.3028H58.8041ZM63.1016 25.4688V23.3807H72.4796L71.1656 24.6587V21.0227C71.1656 20.3867 71.0936 19.8887 70.9496 19.5287C70.8056 19.1687 70.5596 18.9107 70.2116 18.7547C69.8636 18.5987 69.3836 18.5207 68.7716 18.5207C68.2556 18.5207 67.7576 18.5567 67.2776 18.6287C66.8096 18.6887 66.4376 18.7727 66.1616 18.8807L67.6556 17.4767C67.5836 17.7527 67.5176 18.1007 67.4576 18.5207C67.3976 18.9287 67.3436 19.3727 67.2956 19.8527C67.2476 20.3327 67.2236 20.7947 67.2236 21.2387C67.2236 21.6707 67.2416 22.1087 67.2776 22.5527C67.3256 22.9967 67.3796 23.3927 67.4396 23.7407C67.4996 24.0887 67.5416 24.3287 67.5656 24.4607L65.2796 25.0907C65.2316 24.9227 65.1656 24.6467 65.0816 24.2627C65.0096 23.8667 64.9496 23.4107 64.9016 22.8947C64.8536 22.3787 64.8296 21.8267 64.8296 21.2387C64.8296 20.3507 64.8896 19.5107 65.0096 18.7187C65.1296 17.9267 65.2436 17.3267 65.3516 16.9187C65.6276 16.8107 66.0716 16.7027 66.6836 16.5947C67.3076 16.4867 67.9916 16.4327 68.7356 16.4327C70.3436 16.4327 71.5496 16.7807 72.3536 17.4767C73.1576 18.1607 73.5596 19.3487 73.5596 21.0407V25.4688H63.1016ZM68.7356 30.2388C67.9916 30.2388 67.3076 30.1968 66.6836 30.1128C66.0716 30.0288 65.6276 29.9508 65.3516 29.8788C65.2436 29.5668 65.1296 29.1108 65.0096 28.5108C64.8896 27.9108 64.8296 27.2748 64.8296 26.6028C64.8296 25.9548 64.8836 25.3607 64.9916 24.8207C65.0996 24.2807 65.1956 23.9087 65.2796 23.7047L67.5116 24.4607C67.4756 24.5447 67.4336 24.7127 67.3856 24.9647C67.3496 25.2167 67.3136 25.4928 67.2776 25.7928C67.2416 26.1048 67.2236 26.3808 67.2236 26.6208C67.2236 26.8968 67.2416 27.1968 67.2776 27.5208C67.3136 27.8448 67.3616 28.1568 67.4216 28.4568C67.4936 28.7568 67.5656 29.0088 67.6376 29.2128L66.0896 27.8628C66.3536 27.9468 66.7316 28.0128 67.2236 28.0608C67.7276 28.1208 68.2436 28.1508 68.7716 28.1508C69.4076 28.1508 69.8996 28.1028 70.2476 28.0068C70.5956 27.9228 70.8356 27.7668 70.9676 27.5388C71.0996 27.3228 71.1656 27.0288 71.1656 26.6567V23.3807H73.5596V26.7468C73.5596 28.0308 73.1576 28.9308 72.3536 29.4468C71.5496 29.9748 70.3436 30.2388 68.7356 30.2388ZM73.5596 25.4688V23.3807H75.4496V25.4688H73.5596ZM75.4496 25.4688V23.3807C75.5936 23.3807 75.6896 23.4767 75.7376 23.6687C75.7856 23.8487 75.8096 24.1007 75.8096 24.4247C75.8096 24.7367 75.7856 24.9887 75.7376 25.1807C75.6896 25.3727 75.5936 25.4688 75.4496 25.4688ZM63.1016 25.4688C62.9576 25.4688 62.8616 25.3727 62.8136 25.1807C62.7656 24.9887 62.7416 24.7367 62.7416 24.4247C62.7416 24.1007 62.7656 23.8487 62.8136 23.6687C62.8616 23.4767 62.9576 23.3807 63.1016 23.3807V25.4688ZM75.4414 25.4688V23.3807H83.1814L82.3714 24.0467V20.7168C82.3714 19.9967 82.1434 19.4507 81.6874 19.0787C81.2434 18.7067 80.5354 18.5207 79.5634 18.5207C79.2874 18.5207 78.9094 18.5447 78.4294 18.5927C77.9494 18.6287 77.4274 18.6887 76.8634 18.7727L76.6294 16.8647C77.1454 16.7447 77.6674 16.6427 78.1954 16.5587C78.7354 16.4747 79.2634 16.4327 79.7794 16.4327C80.7634 16.4327 81.6274 16.6067 82.3714 16.9547C83.1154 17.2907 83.6974 17.7767 84.1174 18.4127C84.5494 19.0487 84.7654 19.8167 84.7654 20.7168V25.4688H75.4414ZM75.4414 25.4688C75.2974 25.4688 75.2014 25.3727 75.1534 25.1807C75.1054 24.9887 75.0814 24.7367 75.0814 24.4247C75.0814 24.1007 75.1054 23.8487 75.1534 23.6687C75.2014 23.4767 75.2974 23.3807 75.4414 23.3807V25.4688ZM78.9154 29.3028V27.2508H81.3274V29.3028H78.9154Z" fill="#181B32"/>
<path d="M18.4463 5.1484C18.4463 3.38809 16.3363 2.48633 15.0641 3.7029L0.617307 17.5172C0.222714 17.8945 -0.000476161 18.4167 -0.000476256 18.9627L-0.000478335 30.851C-0.000478642 32.6113 2.10947 33.5131 3.38174 32.2965L17.8285 18.4822C18.2231 18.1049 18.4463 17.5827 18.4463 17.0367L18.4463 5.1484Z" fill="#6F42C1"/>
</svg>
