<svg width="33" height="40" viewBox="0 0 33 40" fill="none" xmlns="http://www.w3.org/2000/svg">
<path d="M15.7153 0.199238L1.71699 7.69997C0.84209 8.16877 0.354648 9.34076 0.548375 10.4971C0.742102 11.6535 1.55451 12.4973 2.5044 12.4973V13.1224C2.5044 14.1615 3.17307 14.9976 4.00422 14.9976H29.0013C29.8324 14.9976 30.5011 14.1615 30.5011 13.1224V12.4973C31.451 12.4973 32.2696 11.6613 32.4571 10.4971C32.6446 9.33294 32.1572 8.16095 31.2885 7.69997L17.2902 0.199238C16.7902 -0.0664127 16.2153 -0.0664127 15.7153 0.199238ZM8.50369 17.4978H4.50416V32.8352C4.46666 32.8587 4.42917 32.8899 4.39167 32.9212L1.39203 35.4214C0.660862 36.0309 0.329651 37.1716 0.58587 38.2264C0.84209 39.2812 1.62325 40 2.5044 40H30.5011C31.3823 40 32.1572 39.2812 32.4134 38.2264C32.6696 37.1716 32.3446 36.0309 31.6072 35.4214L28.6076 32.9212C28.5701 32.8899 28.5326 32.8665 28.4951 32.8352V17.4978H24.5018V32.4993H22.0021V17.4978H18.0026V32.4993H15.0029V17.4978H11.0034V32.4993H8.50369V17.4978ZM16.5028 4.99658C17.0331 4.99658 17.5418 5.26 17.9168 5.72889C18.2918 6.19777 18.5025 6.83372 18.5025 7.49683C18.5025 8.15993 18.2918 8.79588 17.9168 9.26476C17.5418 9.73365 17.0331 9.99707 16.5028 9.99707C15.9724 9.99707 15.4637 9.73365 15.0887 9.26476C14.7137 8.79588 14.503 8.15993 14.503 7.49683C14.503 6.83372 14.7137 6.19777 15.0887 5.72889C15.4637 5.26 15.9724 4.99658 16.5028 4.99658Z" fill="#6F42C1"/>
</svg>
