<svg width="76" height="75" viewBox="0 0 76 75" fill="none" xmlns="http://www.w3.org/2000/svg">
<rect width="75" height="75" transform="translate(0.5)" fill="#E2D9F3"/>
<path d="M37.7153 17.1992L23.717 24.7C22.8421 25.1688 22.3546 26.3408 22.5484 27.4971C22.7421 28.6535 23.5545 29.4973 24.5044 29.4973V30.1224C24.5044 31.1615 25.1731 31.9976 26.0042 31.9976H51.0013C51.8324 31.9976 52.5011 31.1615 52.5011 30.1224V29.4973C53.451 29.4973 54.2696 28.6613 54.4571 27.4971C54.6446 26.3329 54.1572 25.161 53.2885 24.7L39.2902 17.1992C38.7902 16.9336 38.2153 16.9336 37.7153 17.1992ZM30.5037 34.4978H26.5042V49.8352C26.4667 49.8587 26.4292 49.8899 26.3917 49.9212L23.392 52.4214C22.6609 53.0309 22.3297 54.1716 22.5859 55.2264C22.8421 56.2812 23.6232 57 24.5044 57H52.5011C53.3823 57 54.1572 56.2812 54.4134 55.2264C54.6696 54.1716 54.3446 53.0309 53.6072 52.4214L50.6076 49.9212C50.5701 49.8899 50.5326 49.8665 50.4951 49.8352V34.4978H46.5018V49.4993H44.0021V34.4978H40.0026V49.4993H37.0029V34.4978H33.0034V49.4993H30.5037V34.4978ZM38.5028 21.9966C39.0331 21.9966 39.5418 22.26 39.9168 22.7289C40.2918 23.1978 40.5025 23.8337 40.5025 24.4968C40.5025 25.1599 40.2918 25.7959 39.9168 26.2648C39.5418 26.7337 39.0331 26.9971 38.5028 26.9971C37.9724 26.9971 37.4637 26.7337 37.0887 26.2648C36.7137 25.7959 36.503 25.1599 36.503 24.4968C36.503 23.8337 36.7137 23.1978 37.0887 22.7289C37.4637 22.26 37.9724 21.9966 38.5028 21.9966Z" fill="#6F42C1"/>
</svg>
