<svg width="18" height="18" viewBox="0 0 18 18" fill="none" xmlns="http://www.w3.org/2000/svg">
<path d="M15.0702 0.685059C14.539 0.685059 14.0187 0.891036 13.6175 1.29215L6.74438 8.14362L6.59261 8.2954L6.54924 8.51222L6.07224 10.9406L5.85542 11.9596L6.87447 11.7428L9.30284 11.2658L9.51966 11.2225L9.67144 11.0707L16.5229 4.19752C17.3224 3.398 17.3224 2.09167 16.5229 1.29215C16.1218 0.891036 15.6014 0.685059 15.0702 0.685059ZM15.0702 2.02933C15.2328 2.02933 15.3927 2.11335 15.5472 2.26784C15.8562 2.5768 15.8562 2.91287 15.5472 3.22184L8.82584 9.94322L7.63334 10.1817L7.87184 8.98922L14.5932 2.26784C14.7477 2.11335 14.9076 2.02933 15.0702 2.02933ZM0.5 3.43866V17.3151H14.3764V8.16531L12.9888 9.55295V15.9274H1.88764V4.8263H8.26211L9.64975 3.43866H0.5Z" fill="#6F42C1"/>
</svg>
