<svg width="32" height="33" viewBox="0 0 32 33" fill="none" xmlns="http://www.w3.org/2000/svg">
<rect width="32" height="32" transform="translate(0 0.5)" fill="#E9ECEF"/>
<path d="M24.8241 5C24.1014 5 23.3934 5.28025 22.8476 5.82601L13.4961 15.1481L13.2896 15.3546L13.2306 15.6496L12.5816 18.9536L12.2866 20.3401L13.6731 20.0451L16.9771 19.3961L17.2721 19.3371L17.4786 19.1306L26.8007 9.77903C27.8885 8.69121 27.8885 6.91383 26.8007 5.82601C26.2549 5.28025 25.5469 5 24.8241 5ZM24.8241 6.82901C25.0454 6.82901 25.263 6.94333 25.4732 7.15352C25.8935 7.57389 25.8935 8.03115 25.4732 8.45152L16.3281 17.5966L14.7056 17.9211L15.0301 16.2986L24.1751 7.15352C24.3853 6.94333 24.6029 6.82901 24.8241 6.82901ZM5 8.74653V27.6267H23.8801V15.1776L21.9921 17.0656V25.7387H6.88801V10.6345H15.5611L17.4491 8.74653H5Z" fill="#6C757D"/>
</svg>
